<svg width="230" height="200" viewBox="0 0 230 200" fill="none" xmlns="http://www.w3.org/2000/svg">
<g clip-path="url(#clip0_137_3747)">
<path d="M227.187 111.764V149.972H213.993" stroke="#D2F7FF" stroke-width="3" stroke-miterlimit="10"/>
<path d="M227.187 76.396V2.65985H171.285" stroke="#D2F7FF" stroke-width="3" stroke-miterlimit="10"/>
<path d="M63.1804 2.65985H108.653" stroke="#D2F7FF" stroke-width="3" stroke-miterlimit="10"/>
<path d="M2.65967 84.6251V2.65985H27.8055" stroke="#D2F7FF" stroke-width="3" stroke-miterlimit="10"/>
<path d="M2.65967 120V198.958H150.924L150.937 149.952H172.104" stroke="#D2F7FF" stroke-width="3" stroke-miterlimit="10"/>
<path d="M63.1804 0.347351H27.8054V4.9793H63.1804V0.347351Z" stroke="#D2F7FF" stroke-miterlimit="10"/>
<path d="M229.5 76.396H224.868V111.771H229.5V76.396Z" stroke="#D2F7FF" stroke-miterlimit="10"/>
<path d="M4.97911 84.6251H0.347168V120H4.97911V84.6251Z" stroke="#D2F7FF" stroke-miterlimit="10"/>
<path d="M171.285 0.347351H108.653V4.9793H171.285V0.347351Z" stroke="#D2F7FF" stroke-miterlimit="10"/>
<path d="M88.3263 113.743V129.396H2.65967" stroke="#D2F7FF" stroke-width="3" stroke-miterlimit="10"/>
<path d="M88.3264 2.65985V90.8543" stroke="#D2F7FF" stroke-width="3" stroke-miterlimit="10"/>
<path d="M88.3264 92.9654V111.757" stroke="#D2F7FF" stroke-miterlimit="10" stroke-linecap="round" stroke-dasharray="3 3"/>
<path d="M86.2152 91.7849H66.5347C66.5347 91.7849 66.6527 112.736 86.2083 112.736" stroke="#D2F7FF" stroke-miterlimit="10"/>
<path d="M150.938 83.3474V64.5557" stroke="#D2F7FF" stroke-miterlimit="10" stroke-linecap="round" stroke-dasharray="3 3"/>
<path d="M153.056 84.5279H172.729C172.729 84.5279 172.611 63.5765 153.056 63.5765" stroke="#D2F7FF" stroke-miterlimit="10"/>
<path d="M22.7708 25.0001H8.30553C7.50692 25.0001 6.86108 24.3543 6.86108 23.5557V9.08345C6.86108 8.28484 7.50692 7.63901 8.30553 7.63901H22.7708C23.5694 7.63901 24.2152 8.28484 24.2152 9.08345V23.5487C24.2222 24.3543 23.5694 25.0001 22.7708 25.0001Z" stroke="#D2F7FF" stroke-miterlimit="10"/>
<path d="M82.6874 25.0001H68.2152C67.4166 25.0001 66.7708 24.3543 66.7708 23.5557V9.08345C66.7708 8.28484 67.4166 7.63901 68.2152 7.63901H82.6805C83.4791 7.63901 84.1249 8.28484 84.1249 9.08345V23.5487C84.1319 24.3543 83.486 25.0001 82.6874 25.0001Z" stroke="#D2F7FF" stroke-miterlimit="10"/>
<path d="M57.4999 55.9029H33.4929C32.6041 55.9029 31.8818 55.1807 31.8818 54.2918V14.2223C31.8818 13.3335 32.6041 12.6112 33.4929 12.6112H57.4999C58.3888 12.6112 59.111 13.3335 59.111 14.2223V54.2918C59.1041 55.1807 58.3888 55.9029 57.4999 55.9029Z" stroke="#D2F7FF" stroke-miterlimit="10"/>
<path d="M42.6389 23.8057H36.2917C35.6806 23.8057 35.1875 23.3126 35.1875 22.7015V16.3543C35.1875 15.7432 35.6806 15.2501 36.2917 15.2501H42.6389C43.25 15.2501 43.7431 15.7432 43.7431 16.3543V22.7015C43.7431 23.3126 43.25 23.8057 42.6389 23.8057Z" stroke="#D2F7FF" stroke-miterlimit="10"/>
<path d="M54.6946 23.8057H48.3473C47.7362 23.8057 47.2432 23.3126 47.2432 22.7015V16.3543C47.2432 15.7432 47.7362 15.2501 48.3473 15.2501H54.6946C55.3057 15.2501 55.7987 15.7432 55.7987 16.3543V22.7015C55.7987 23.3126 55.3057 23.8057 54.6946 23.8057Z" stroke="#D2F7FF" stroke-miterlimit="10"/>
<path d="M31.8818 26.2015H59.1041" stroke="#D2F7FF" stroke-miterlimit="10"/>
<path d="M15.9584 125H13.5278C12.9375 125 12.4514 124.521 12.4514 123.924V109.285C12.4514 108.695 12.9306 108.208 13.5278 108.208H15.9584C16.5486 108.208 17.0347 108.688 17.0347 109.285V123.924C17.0347 124.521 16.5486 125 15.9584 125Z" stroke="#D2F7FF" stroke-miterlimit="10"/>
<path d="M53.2084 125H50.7778C50.1806 125 49.7014 124.521 49.7014 123.924V109.285C49.7014 108.695 50.1806 108.208 50.7778 108.208H53.2084C53.8056 108.208 54.2847 108.688 54.2847 109.285V123.924C54.2778 124.521 53.7986 125 53.2084 125Z" stroke="#D2F7FF" stroke-miterlimit="10"/>
<path d="M26.8472 125H18.1111C17.5138 125 17.0347 124.521 17.0347 123.924V122.188C17.0347 121.59 17.5138 121.111 18.1111 121.111H26.8541C27.4444 121.111 27.9305 121.59 27.9305 122.188V123.924C27.9236 124.521 27.4444 125 26.8472 125Z" stroke="#D2F7FF" stroke-miterlimit="10"/>
<path d="M26.8472 110.229H18.1111C17.5138 110.229 17.0347 110.708 17.0347 111.306V120.049C17.0347 120.639 17.5138 121.125 18.1111 121.125H26.8541C27.4444 121.125 27.9305 120.646 27.9305 120.049V111.306C27.9236 110.708 27.4444 110.229 26.8472 110.229Z" stroke="#D2F7FF" stroke-miterlimit="10"/>
<path d="M37.7361 125H29C28.4028 125 27.9236 124.521 27.9236 123.924V122.188C27.9236 121.59 28.4028 121.111 29 121.111H37.743C38.3333 121.111 38.8194 121.59 38.8194 122.188V123.924C38.8125 124.521 38.3333 125 37.7361 125Z" stroke="#D2F7FF" stroke-miterlimit="10"/>
<path d="M37.7361 110.229H29C28.4028 110.229 27.9236 110.708 27.9236 111.306V120.049C27.9236 120.639 28.4028 121.125 29 121.125H37.743C38.3333 121.125 38.8194 120.646 38.8194 120.049V111.306C38.8125 110.708 38.3333 110.229 37.7361 110.229Z" stroke="#D2F7FF" stroke-miterlimit="10"/>
<path d="M48.625 125H39.8889C39.2986 125 38.8125 124.521 38.8125 123.924V122.188C38.8125 121.59 39.2917 121.111 39.8889 121.111H48.6319C49.2292 121.111 49.7083 121.59 49.7083 122.188V123.924C49.7014 124.521 49.2222 125 48.625 125Z" stroke="#D2F7FF" stroke-miterlimit="10"/>
<path d="M48.625 110.229H39.8889C39.2986 110.229 38.8125 110.708 38.8125 111.306V120.049C38.8125 120.639 39.2917 121.125 39.8889 121.125H48.6319C49.2292 121.125 49.7083 120.646 49.7083 120.049V111.306C49.7014 110.708 49.2222 110.229 48.625 110.229Z" stroke="#D2F7FF" stroke-miterlimit="10"/>
<path d="M112.812 135.604H115.347C115.965 135.604 116.465 136.104 116.465 136.722V151.986C116.465 152.604 115.965 153.104 115.347 153.104H112.812C112.194 153.104 111.694 152.604 111.694 151.986V136.722C111.687 136.104 112.194 135.604 112.812 135.604Z" stroke="#D2F7FF" stroke-miterlimit="10"/>
<path d="M73.9584 135.604H76.4931C77.1112 135.604 77.6112 136.104 77.6112 136.722V151.986C77.6112 152.604 77.1112 153.104 76.4931 153.104H73.9584C73.3403 153.104 72.8403 152.604 72.8403 151.986V136.722C72.8403 136.104 73.3403 135.604 73.9584 135.604Z" stroke="#D2F7FF" stroke-miterlimit="10"/>
<path d="M101.452 135.604H110.57C111.188 135.604 111.688 136.104 111.688 136.722V138.528C111.688 139.146 111.188 139.646 110.57 139.646H101.452C100.833 139.646 100.333 139.146 100.333 138.528V136.722C100.333 136.104 100.833 135.604 101.452 135.604Z" stroke="#D2F7FF" stroke-miterlimit="10"/>
<path d="M101.452 151.007H110.57C111.188 151.007 111.688 150.507 111.688 149.889V140.771C111.688 140.153 111.188 139.653 110.57 139.653H101.452C100.833 139.653 100.333 140.153 100.333 140.771V149.889C100.333 150.507 100.833 151.007 101.452 151.007Z" stroke="#D2F7FF" stroke-miterlimit="10"/>
<path d="M90.0974 135.604H99.2154C99.8335 135.604 100.333 136.104 100.333 136.722V138.528C100.333 139.146 99.8335 139.646 99.2154 139.646H90.0974C89.4793 139.646 88.9793 139.146 88.9793 138.528V136.722C88.9724 136.104 89.4724 135.604 90.0974 135.604Z" stroke="#D2F7FF" stroke-miterlimit="10"/>
<path d="M90.0974 151.007H99.2154C99.8335 151.007 100.333 150.507 100.333 149.889V140.771C100.333 140.153 99.8335 139.653 99.2154 139.653H90.0974C89.4793 139.653 88.9793 140.153 88.9793 140.771V149.889C88.9724 150.507 89.4724 151.007 90.0974 151.007Z" stroke="#D2F7FF" stroke-miterlimit="10"/>
<path d="M78.7362 135.604H87.8543C88.4723 135.604 88.9723 136.104 88.9723 136.722V138.528C88.9723 139.146 88.4723 139.646 87.8543 139.646H78.7362C78.1182 139.646 77.6182 139.146 77.6182 138.528V136.722C77.6182 136.104 78.1182 135.604 78.7362 135.604Z" stroke="#D2F7FF" stroke-miterlimit="10"/>
<path d="M78.7362 151.007H87.8543C88.4723 151.007 88.9723 150.507 88.9723 149.889V140.771C88.9723 140.153 88.4723 139.653 87.8543 139.653H78.7362C78.1182 139.653 77.6182 140.153 77.6182 140.771V149.889C77.6182 150.507 78.1182 151.007 78.7362 151.007Z" stroke="#D2F7FF" stroke-miterlimit="10"/>
<path d="M29.9027 105.618C39.0116 105.618 46.3958 101.387 46.3958 96.1668C46.3958 90.9469 39.0116 86.7154 29.9027 86.7154C20.7939 86.7154 13.4097 90.9469 13.4097 96.1668C13.4097 101.387 20.7939 105.618 29.9027 105.618Z" stroke="#D2F7FF" stroke-miterlimit="10"/>
<path d="M193.042 149.188C193.042 129.625 172.09 129.514 172.09 129.514V149.188H213.986V129.514C213.993 129.514 193.042 129.632 193.042 149.188Z" stroke="#D2F7FF" stroke-miterlimit="10"/>
<path d="M172.09 150.708H213.993" stroke="#D2F7FF" stroke-miterlimit="10"/>
<path d="M150.938 62.0349V58.389H227.187" stroke="#D2F7FF" stroke-width="3" stroke-miterlimit="10"/>
<path d="M150.938 149.952V86.2293" stroke="#D2F7FF" stroke-width="3" stroke-miterlimit="10"/>
<path d="M159.819 119.931H151.632V147.285H159.819V119.931Z" stroke="#D2F7FF" stroke-miterlimit="10"/>
<path d="M159.826 119.931L151.632 147.278" stroke="#D2F7FF" stroke-miterlimit="10"/>
<path d="M151.632 119.931L159.826 147.278" stroke="#D2F7FF" stroke-miterlimit="10"/>
<path d="M159.819 90.8543H151.632V118.208H159.819V90.8543Z" stroke="#D2F7FF" stroke-miterlimit="10"/>
<path d="M159.826 90.8543L151.632 118.208" stroke="#D2F7FF" stroke-miterlimit="10"/>
<path d="M151.632 90.8543L159.826 118.208" stroke="#D2F7FF" stroke-miterlimit="10"/>
<path d="M207.972 70.4793H177.188V126.264H207.972V70.4793Z" stroke="#D2F7FF" stroke-width="0.5" stroke-miterlimit="10" stroke-linecap="round" stroke-dasharray="3 3"/>
<path d="M227.187 9.25708H213.993V57.521H227.187V9.25708Z" stroke="#D2F7FF" stroke-miterlimit="10"/>
<path d="M213.986 44.0974H199.694V58.389H213.986V44.0974Z" stroke="#D2F7FF" stroke-miterlimit="10"/>
<path d="M199.694 47.4515H213.993" stroke="#D2F7FF" stroke-miterlimit="10"/>
<path d="M213.993 44.0974H227.187" stroke="#D2F7FF" stroke-miterlimit="10"/>
<path d="M224.84 11.4307H215.639V20.6321H224.84V11.4307Z" stroke="#D2F7FF" stroke-width="0.5" stroke-miterlimit="10"/>
<path d="M218.07 15.7224C219.051 15.7224 219.847 14.9264 219.847 13.9446C219.847 12.9627 219.051 12.1668 218.07 12.1668C217.088 12.1668 216.292 12.9627 216.292 13.9446C216.292 14.9264 217.088 15.7224 218.07 15.7224Z" stroke="#D2F7FF" stroke-width="0.5" stroke-miterlimit="10"/>
<path d="M222.41 15.7224C223.392 15.7224 224.188 14.9264 224.188 13.9446C224.188 12.9627 223.392 12.1668 222.41 12.1668C221.428 12.1668 220.632 12.9627 220.632 13.9446C220.632 14.9264 221.428 15.7224 222.41 15.7224Z" stroke="#D2F7FF" stroke-width="0.5" stroke-miterlimit="10"/>
<path d="M218.07 19.896C219.051 19.896 219.847 19.1 219.847 18.1182C219.847 17.1364 219.051 16.3404 218.07 16.3404C217.088 16.3404 216.292 17.1364 216.292 18.1182C216.292 19.1 217.088 19.896 218.07 19.896Z" stroke="#D2F7FF" stroke-width="0.5" stroke-miterlimit="10"/>
<path d="M222.41 19.896C223.392 19.896 224.188 19.1 224.188 18.1182C224.188 17.1364 223.392 16.3404 222.41 16.3404C221.428 16.3404 220.632 17.1364 220.632 18.1182C220.632 19.1 221.428 19.896 222.41 19.896Z" stroke="#D2F7FF" stroke-width="0.5" stroke-miterlimit="10"/>
<path d="M224.84 28.4446H215.639V42.5974H224.84V28.4446Z" stroke="#D2F7FF" stroke-width="0.5" stroke-miterlimit="10"/>
<path d="M176.25 43.396C183.637 43.396 189.625 37.4078 189.625 30.021C189.625 22.6342 183.637 16.646 176.25 16.646C168.863 16.646 162.875 22.6342 162.875 30.021C162.875 37.4078 168.863 43.396 176.25 43.396Z" stroke="#D2F7FF" stroke-miterlimit="10"/>
<path d="M162.194 49.9237L156.354 44.0835L161.396 39.0418C161.84 38.5974 162.555 38.5974 163 39.0418L167.236 43.2779C167.68 43.7224 167.68 44.4376 167.236 44.8821L162.194 49.9237Z" stroke="#D2F7FF" stroke-miterlimit="10"/>
<path d="M158.139 42.2918L163.979 48.1321" stroke="#D2F7FF" stroke-miterlimit="10"/>
<path d="M190.298 10.1251L196.139 15.9654L191.097 21.0071C190.653 21.4515 189.937 21.4515 189.493 21.0071L185.257 16.771C184.812 16.3265 184.812 15.6112 185.257 15.1668L190.298 10.1251Z" stroke="#D2F7FF" stroke-miterlimit="10"/>
<path d="M194.354 17.7571L188.514 11.9168" stroke="#D2F7FF" stroke-miterlimit="10"/>
<path d="M156.354 15.9724L162.194 10.1321L167.236 15.1737C167.68 15.6182 167.68 16.3335 167.236 16.7779L163 21.014C162.555 21.4585 161.84 21.4585 161.396 21.014L156.354 15.9724Z" stroke="#D2F7FF" stroke-miterlimit="10"/>
<path d="M163.979 11.9168L158.139 17.7571" stroke="#D2F7FF" stroke-miterlimit="10"/>
<path d="M196.146 44.0765L190.305 49.9168L185.264 44.8752C184.819 44.4307 184.819 43.7154 185.264 43.271L189.5 39.0349C189.944 38.5904 190.66 38.5904 191.104 39.0349L196.146 44.0765Z" stroke="#D2F7FF" stroke-miterlimit="10"/>
<path d="M188.514 48.1321L194.354 42.2918" stroke="#D2F7FF" stroke-miterlimit="10"/>
<path d="M150.938 191.549H168.333L220.59 163.771V149.952" stroke="#D2F7FF" stroke-width="3" stroke-miterlimit="10"/>
<path d="M150.938 185.07H165.118L213.993 159.479V149.188" stroke="#D2F7FF" stroke-width="3" stroke-miterlimit="10"/>
<path d="M97.7847 10.2987H88.3264V44.4446H97.7847V10.2987Z" stroke="#D2F7FF" stroke-miterlimit="10"/>
<path d="M96.1111 13.0765H90.6111V18.5765H96.1111V13.0765Z" stroke="#D2F7FF" stroke-width="0.5" stroke-miterlimit="10"/>
<path d="M93.0556 42.6182C94.3979 42.6182 95.4861 41.53 95.4861 40.1876C95.4861 38.8453 94.3979 37.7571 93.0556 37.7571C91.7132 37.7571 90.625 38.8453 90.625 40.1876C90.625 41.53 91.7132 42.6182 93.0556 42.6182Z" stroke="#D2F7FF" stroke-width="0.5" stroke-miterlimit="10"/>
<path d="M93.3612 35.6251C94.7036 35.6251 95.7918 34.5369 95.7918 33.1946C95.7918 31.8522 94.7036 30.764 93.3612 30.764C92.0189 30.764 90.9307 31.8522 90.9307 33.1946C90.9307 34.5369 92.0189 35.6251 93.3612 35.6251Z" stroke="#D2F7FF" stroke-width="0.5" stroke-miterlimit="10"/>
<path d="M151.639 9.25708H105.312V52.6599H151.639V9.25708Z" stroke="#D2F7FF" stroke-width="0.5" stroke-miterlimit="10" stroke-linecap="round" stroke-dasharray="3 3"/>
<path d="M109.035 60.6807V74.4376C109.035 74.9376 108.632 75.3404 108.132 75.3404H94.3749C93.8749 75.3404 93.4722 74.9376 93.4722 74.4376V60.6807C93.4722 60.1807 93.8749 59.7779 94.3749 59.7779H108.132C108.632 59.7779 109.035 60.1876 109.035 60.6807Z" stroke="#D2F7FF" stroke-miterlimit="10"/>
<path d="M109.035 72.889V74.6112C109.035 75.014 108.708 75.3404 108.306 75.3404H96.9653C96.5625 75.3404 96.2361 75.014 96.2361 74.6112V72.889C96.2361 72.4862 96.5625 72.1599 96.9653 72.1599H108.306C108.715 72.1668 109.035 72.4862 109.035 72.889Z" stroke="#D2F7FF" stroke-miterlimit="10"/>
<path d="M109.035 60.5071V62.2293C109.035 62.6321 108.708 62.9585 108.306 62.9585H96.9653C96.5625 62.9585 96.2361 62.6321 96.2361 62.2293V60.5071C96.2361 60.1043 96.5625 59.7779 96.9653 59.7779H108.306C108.715 59.7779 109.035 60.1043 109.035 60.5071Z" stroke="#D2F7FF" stroke-miterlimit="10"/>
<path d="M98.3333 72.1668V62.9585" stroke="#D2F7FF" stroke-miterlimit="10"/>
<path d="M128.097 174.82V161.063C128.097 160.563 128.5 160.16 129 160.16H142.757C143.257 160.16 143.66 160.563 143.66 161.063V174.82C143.66 175.32 143.257 175.722 142.757 175.722H129C128.507 175.722 128.097 175.32 128.097 174.82Z" stroke="#D2F7FF" stroke-miterlimit="10"/>
<path d="M128.097 162.611V160.889C128.097 160.486 128.424 160.16 128.826 160.16H140.167C140.569 160.16 140.896 160.486 140.896 160.889V162.611C140.896 163.014 140.569 163.34 140.167 163.34H128.826C128.424 163.34 128.097 163.014 128.097 162.611Z" stroke="#D2F7FF" stroke-miterlimit="10"/>
<path d="M128.097 174.993V173.271C128.097 172.868 128.424 172.542 128.826 172.542H140.167C140.569 172.542 140.896 172.868 140.896 173.271V174.993C140.896 175.396 140.569 175.722 140.167 175.722H128.826C128.424 175.722 128.097 175.396 128.097 174.993Z" stroke="#D2F7FF" stroke-miterlimit="10"/>
<path d="M138.805 163.34V172.542" stroke="#D2F7FF" stroke-miterlimit="10"/>
<path d="M45.6321 134.236V153.028" stroke="#D2F7FF" stroke-miterlimit="10" stroke-linecap="round" stroke-dasharray="3 3"/>
<path d="M43.5139 133.056H23.8403C23.8403 133.056 23.9584 154.007 43.5139 154.007" stroke="#D2F7FF" stroke-miterlimit="10"/>
<path d="M45.6179 155.674V198.958" stroke="#D2F7FF" stroke-width="3" stroke-miterlimit="10"/>
<path d="M40.3818 195.542H8.09012C7.13178 195.542 6.354 194.764 6.354 193.806V182.868C6.354 181.91 7.13178 181.132 8.09012 181.132H40.3818C41.3401 181.132 42.1179 181.91 42.1179 182.868V193.806C42.1179 194.764 41.3401 195.542 40.3818 195.542Z" stroke="#D2F7FF" stroke-miterlimit="10"/>
<path d="M11.604 188.34C11.604 189 11.0693 189.535 10.4095 189.535C9.74981 189.535 9.21509 189 9.21509 188.34C9.21509 187.681 9.74981 187.146 10.4095 187.146C11.0693 187.146 11.604 187.681 11.604 188.34Z" stroke="#D2F7FF" stroke-miterlimit="10"/>
<path d="M15.3472 133.056H2.65967V145.743H15.3472V133.056Z" stroke="#D2F7FF" stroke-miterlimit="10"/>
<path d="M45.632 170.368H41.4237C39.8264 170.368 38.5278 169.07 38.5278 167.472V163.195C38.5278 161.597 39.8264 160.299 41.4237 160.299H45.632V170.368Z" stroke="#D2F7FF" stroke-miterlimit="10"/>
<path d="M41.9861 166.333C42.5384 166.333 42.9861 165.886 42.9861 165.333C42.9861 164.781 42.5384 164.333 41.9861 164.333C41.4338 164.333 40.9861 164.781 40.9861 165.333C40.9861 165.886 41.4338 166.333 41.9861 166.333Z" stroke="#D2F7FF" stroke-miterlimit="10"/>
<path d="M8.33336 167.938H3.13892V156.743H8.33336C9.11114 156.743 9.73614 157.368 9.73614 158.146V166.535C9.73614 167.313 9.11114 167.938 8.33336 167.938Z" stroke="#D2F7FF" stroke-miterlimit="10"/>
<path d="M14.4722 166.014H9.73608V158.667H14.4722C16.5 158.667 18.1458 160.313 18.1458 162.34C18.1458 164.368 16.5 166.014 14.4722 166.014Z" stroke="#D2F7FF" stroke-miterlimit="10"/>
<path d="M16.625 162.34C16.625 163.306 15.3333 164.09 13.743 164.09C12.1528 164.09 10.8611 163.306 10.8611 162.34C10.8611 161.375 12.1528 160.59 13.743 160.59C15.3333 160.59 16.625 161.375 16.625 162.34Z" stroke="#D2F7FF" stroke-miterlimit="10"/>
<path d="M6.02078 163.514C6.66895 163.514 7.19439 162.989 7.19439 162.34C7.19439 161.692 6.66895 161.167 6.02078 161.167C5.37261 161.167 4.84717 161.692 4.84717 162.34C4.84717 162.989 5.37261 163.514 6.02078 163.514Z" stroke="#D2F7FF" stroke-miterlimit="10"/>
<path d="M87.5278 56.8057H79.3403V84.1599H87.5278V56.8057Z" stroke="#D2F7FF" stroke-miterlimit="10"/>
<path d="M87.5348 56.8057L79.3403 84.1599" stroke="#D2F7FF" stroke-miterlimit="10"/>
<path d="M79.3403 56.8057L87.5348 84.1599" stroke="#D2F7FF" stroke-miterlimit="10"/>
<path d="M63.5416 7.63901H27.4443V80.9029H63.5416V7.63901Z" stroke="#D2F7FF" stroke-width="0.5" stroke-miterlimit="10" stroke-linecap="round" stroke-dasharray="3 3"/>
<path d="M88.3264 129.396H123.826" stroke="#D2F7FF" stroke-width="3" stroke-miterlimit="10"/>
<path d="M120.819 158.09H68.479V187.146H120.819V158.09Z" stroke="#D2F7FF" stroke-width="0.5" stroke-miterlimit="10" stroke-linecap="round" stroke-dasharray="3 3"/>
<path d="M116.667 191.549H72.6318V198.958H116.667V191.549Z" stroke="#D2F7FF" stroke-miterlimit="10"/>
<path d="M60.4167 195.257H50.0834C49.3889 195.257 48.8264 194.695 48.8264 194V183.674C48.8264 182.979 49.3889 182.417 50.0834 182.417H60.4167C61.1111 182.417 61.6736 182.979 61.6736 183.674V194C61.6736 194.688 61.1111 195.257 60.4167 195.257Z" stroke="#D2F7FF" stroke-miterlimit="10"/>
<path d="M222.34 74.8821H212.014C211.319 74.8821 210.757 74.3196 210.757 73.6251V63.2987C210.757 62.6043 211.319 62.0418 212.014 62.0418H222.34C223.035 62.0418 223.597 62.6043 223.597 63.2987V73.6251C223.597 74.3196 223.035 74.8821 222.34 74.8821Z" stroke="#D2F7FF" stroke-miterlimit="10"/>
<path d="M140.195 84.7362H97.0903V121.389H140.195V84.7362Z" stroke="#D2F7FF" stroke-width="0.5" stroke-miterlimit="10" stroke-linecap="round" stroke-dasharray="3 3"/>
</g>
<defs>
<clipPath id="clip0_137_3747">
<rect width="229.847" height="200" fill="white"/>
</clipPath>
</defs>
</svg>
